<svg xmlns="http://www.w3.org/2000/svg" xmlns:xlink="http://www.w3.org/1999/xlink" viewBox="0,0,256,256" width="132px" height="132px" fill-rule="nonzero"><g fill="#f86642" fill-rule="nonzero" stroke="none" stroke-width="1" stroke-linecap="butt" stroke-linejoin="miter" stroke-miterlimit="10" stroke-dasharray="" stroke-dashoffset="0" font-family="none" font-weight="none" font-size="none" text-anchor="none" style="mix-blend-mode: normal"><g transform="scale(10.24,10.24)"><path d="M17.8,1.5c0,-0.6 -0.4,-1 -1,-1h-8.6c-0.6,0 -1,0.4 -1,1c0,1.6 -1.3,2.9 -2.9,2.9c-0.6,0 -1,0.5 -1,1v5.7c0,8.5 7.1,11.6 8.6,13.2c0.2,0.1 0.4,0.2 0.6,0.2c0.2,0 0.4,-0.1 0.6,-0.2c1.6,-1.7 8.6,-4.7 8.6,-13.2v-5.7c0,-0.5 -0.4,-1 -1,-1c-1.6,0 -2.9,-1.3 -2.9,-2.9zM12.5,15.9c-2.6,0 -4.8,-2.1 -4.8,-4.8c0,-2.3 1.7,-4.3 4,-4.7v-0.3c0,-0.3 0.2,-0.7 0.5,-0.8c0.3,-0.2 0.7,-0.1 0.9,0.1l1.6,1.2c0.3,0.2 0.4,0.4 0.4,0.7c0,0.3 -0.1,0.6 -0.4,0.7l-1.6,1.2c-0.2,0.1 -0.4,0.2 -0.5,0.2c-0.1,0 -0.3,0 -0.4,-0.1c-0.3,-0.2 -0.5,-0.5 -0.5,-0.8v-0.1c-1.1,0.4 -2,1.4 -2,2.7c0,1.5 1.3,2.8 2.8,2.8c1.5,0 2.8,-1.3 2.8,-2.8c0,-0.6 0.4,-1 1,-1c0.6,0 1,0.4 1,1c0,2.7 -2.2,4.8 -4.8,4.8z"></path></g></g></svg>