<svg xmlns="http://www.w3.org/2000/svg" xmlns:xlink="http://www.w3.org/1999/xlink" viewBox="0,0,256,256" width="30px" height="30px" fill-rule="nonzero"><g fill="none" fill-rule="nonzero" stroke="none" stroke-width="1" stroke-linecap="butt" stroke-linejoin="miter" stroke-miterlimit="10" stroke-dasharray="" stroke-dashoffset="0" font-family="none" font-weight="none" font-size="none" text-anchor="none" style="mix-blend-mode: normal"><g transform="scale(5.33333,5.33333)"><path d="M12,16c-2.76142,0 -5,2.23858 -5,5c0,2.76142 2.23858,5 5,5c2.76142,0 5,-2.23858 5,-5c0,-2.76142 -2.23858,-5 -5,-5z" fill="#ff734f"></path><path d="M2,34.7c0,0 2.8,-6.3 10,-6.3c7.2,0 10,6.3 10,6.3v3.3h-20zM46,34.7c0,0 -2.8,-6.3 -10,-6.3c-7.2,0 -10,6.3 -10,6.3v3.3h20z" fill="#f86642"></path><path d="M24,11c-3.31371,0 -6,2.68629 -6,6c0,3.31371 2.68629,6 6,6c3.31371,0 6,-2.68629 6,-6c0,-3.31371 -2.68629,-6 -6,-6z" fill-opacity="0.78039" fill="#ff734f"></path><path d="M36,34.1c0,0 -3.3,-7.5 -12,-7.5c-8.7,0 -12,7.5 -12,7.5v3.9h24z" fill="#f86642"></path><path d="M36,16c-2.76142,0 -5,2.23858 -5,5c0,2.76142 2.23858,5 5,5c2.76142,0 5,-2.23858 5,-5c0,-2.76142 -2.23858,-5 -5,-5z" fill="#ff734f"></path><g fill="#ff734f"><path d="M12,16c-2.76142,0 -5,2.23858 -5,5c0,2.76142 2.23858,5 5,5c2.76142,0 5,-2.23858 5,-5c0,-2.76142 -2.23858,-5 -5,-5zM36,16c-2.76142,0 -5,2.23858 -5,5c0,2.76142 2.23858,5 5,5c2.76142,0 5,-2.23858 5,-5c0,-2.76142 -2.23858,-5 -5,-5z"></path></g></g></g></svg>