<svg xmlns="http://www.w3.org/2000/svg" xmlns:xlink="http://www.w3.org/1999/xlink" viewBox="0,0,256,256" width="35px" height="35px" fill-rule="nonzero"><g fill="#f86642" fill-rule="nonzero" stroke="none" stroke-width="1" stroke-linecap="butt" stroke-linejoin="miter" stroke-miterlimit="10" stroke-dasharray="" stroke-dashoffset="0" font-family="none" font-weight="none" font-size="none" text-anchor="none" style="mix-blend-mode: normal"><g transform="scale(4,4)"><path d="M32,5c-14.8879,0 -27,12.1121 -27,27c0,14.8879 12.1121,27 27,27c14.8879,0 27,-12.1121 27,-27c0,-14.8879 -12.1121,-27 -27,-27zM32,9c12.7261,0 23,10.2739 23,23c0,12.7261 -10.2739,23 -23,23c-12.7261,0 -23,-10.2739 -23,-23c0,-12.7261 10.2739,-23 23,-23zM23,24c-2.20914,0 -4,1.79086 -4,4c0,2.20914 1.79086,4 4,4c2.20914,0 4,-1.79086 4,-4c0,-2.20914 -1.79086,-4 -4,-4zM41,24c-2.20914,0 -4,1.79086 -4,4c0,2.20914 1.79086,4 4,4c2.20914,0 4,-1.79086 4,-4c0,-2.20914 -1.79086,-4 -4,-4zM17.9082,36.15625l-1.87695,0.6875c0.79,3.402 2.9002,6.54752 5.7832,8.72852c1.43,1.113 3.07388,1.94692 4.79688,2.54492c1.733,0.578 3.56367,0.86081 5.38867,0.88281c3.658,-0.006 7.31255,-1.22369 10.18555,-3.42969c2.885,-2.181 4.9782,-5.33356 5.7832,-8.72656l-1.87695,-0.6875c-1.45,2.709 -3.48631,4.961 -5.94531,6.5c-2.461,1.519 -5.28448,2.36775 -8.14648,2.34375c-2.858,0.018 -5.68948,-0.81475 -8.14648,-2.34375c-2.457,-1.54 -4.51131,-3.781 -5.94531,-6.5z"></path></g></g></svg>