<svg xmlns="http://www.w3.org/2000/svg" xmlns:xlink="http://www.w3.org/1999/xlink" viewBox="0,0,256,256" width="40px" height="40px" fill-rule="nonzero"><g fill="#ffffff" fill-rule="nonzero" stroke="none" stroke-width="1" stroke-linecap="butt" stroke-linejoin="miter" stroke-miterlimit="10" stroke-dasharray="" stroke-dashoffset="0" font-family="none" font-weight="none" font-size="none" text-anchor="none" style="mix-blend-mode: normal"><g transform="scale(8.53333,8.53333)"><path d="M15,3c-0.16497,0.00012 -0.32734,0.04105 -0.47266,0.11914l-13.99023,6.99414v0.00195c-0.32961,0.17212 -0.5365,0.51292 -0.53711,0.88477c0.00061,0.37184 0.2075,0.71264 0.53711,0.88477v0.00195l13.98437,6.99023c0.1467,0.08039 0.31123,0.1227 0.47852,0.12305c0.16497,-0.00012 0.32734,-0.04105 0.47266,-0.11914l13.98047,-6.99023c0.00326,-0.00128 0.00652,-0.00259 0.00977,-0.00391v-0.00195c0.32961,-0.17212 0.5365,-0.51292 0.53711,-0.88477c-0.00061,-0.37184 -0.2075,-0.71264 -0.53711,-0.88477v-0.00195l-13.98437,-6.99023c-0.1467,-0.08039 -0.31123,-0.1227 -0.47852,-0.12305zM29,14.35352l-2,1v8.92383c-0.59563,0.34627 -1,0.98371 -1,1.72266c0,1.105 2,4 2,4c0,0 2,-2.895 2,-4c0,-0.73895 -0.40437,-1.37639 -1,-1.72266zM6,16.85156v4.14844c0,2.761 4.029,5 9,5c4.971,0 9,-2.239 9,-5v-4.14844l-7.63477,3.81836c-0.084,0.042 -0.16791,0.07647 -0.25391,0.10547c-0.362,0.149 -0.73433,0.22461 -1.11133,0.22461c-0.376,0 -0.74742,-0.07561 -1.10742,-0.22461c-0.087,-0.029 -0.17281,-0.06442 -0.25781,-0.10742z"></path></g></g></svg>