<svg xmlns="http://www.w3.org/2000/svg" xmlns:xlink="http://www.w3.org/1999/xlink" viewBox="0,0,256,256" width="30px" height="30px" fill-rule="nonzero"><defs><linearGradient x1="3" y1="22.5" x2="45" y2="22.5" gradientUnits="userSpaceOnUse" id="color-1"><stop offset="0" stop-color="#f86642" stop-opacity="0.47059"></stop><stop offset="1" stop-color="#f86642" stop-opacity="0.5098"></stop></linearGradient><linearGradient x1="15" y1="31.5" x2="33" y2="31.5" gradientUnits="userSpaceOnUse" id="color-2"><stop offset="0" stop-color="#fa5252"></stop><stop offset="1" stop-color="#fa5252"></stop></linearGradient><linearGradient x1="42" y1="18" x2="48" y2="18" gradientUnits="userSpaceOnUse" id="color-3"><stop offset="0" stop-color="#f86642" stop-opacity="0.47059"></stop><stop offset="1" stop-color="#f86642" stop-opacity="0.5098"></stop></linearGradient><linearGradient x1="0" y1="18" x2="6" y2="18" gradientUnits="userSpaceOnUse" id="color-4"><stop offset="0" stop-color="#f86642" stop-opacity="0.47059"></stop><stop offset="1" stop-color="#f86642" stop-opacity="0.5098"></stop></linearGradient><linearGradient x1="7.75" y1="14.5" x2="40.25" y2="14.5" gradientUnits="userSpaceOnUse" id="color-5"><stop offset="0" stop-color="#fa5252"></stop><stop offset="1" stop-color="#fa5252"></stop></linearGradient></defs><g fill="none" fill-rule="nonzero" stroke="none" stroke-width="1" stroke-linecap="butt" stroke-linejoin="miter" stroke-miterlimit="10" stroke-dasharray="" stroke-dashoffset="0" font-family="none" font-weight="none" font-size="none" text-anchor="none" style="mix-blend-mode: normal"><g transform="scale(5.33333,5.33333)"><path d="M38,42h6c0.552,0 1,-0.448 1,-1v-5h-8v5c0,0.552 0.448,1 1,1z" fill="#565b5e"></path><path d="M11,41v-5h-8v5c0,0.552 0.448,1 1,1h6c0.552,0 1,-0.448 1,-1z" fill="#565b5e"></path><path d="M42,19l-2.243,-8.97c-0.445,-1.781 -2.045,-3.03 -3.88,-3.03h-23.754c-1.835,0 -3.435,1.249 -3.881,3.03l-2.242,8.97l-1.8,2.4c-0.779,1.038 -1.2,2.302 -1.2,3.6v11c0,1.105 0.895,2 2,2h38c1.105,0 2,-0.895 2,-2v-11c0,-1.298 -0.421,-2.561 -1.2,-3.6z" fill="url(#color-1)"></path><circle cx="38.5" cy="26.5" r="2.5" fill="#ffffff"></circle><circle cx="9.5" cy="26.5" r="2.5" fill="#ffffff"></circle><path d="M15,29l1.497,3.743c0.304,0.759 1.039,1.257 1.857,1.257h11.292c0.818,0 1.553,-0.498 1.857,-1.257l1.497,-3.743z" fill="url(#color-2)"></path><path d="M46,20h-4v-2c0,-1.105 0.895,-2 2,-2h3c0.552,0 1,0.448 1,1v1c0,1.105 -0.895,2 -2,2z" fill="url(#color-3)"></path><path d="M2,20h4v-2c0,-1.105 -0.895,-2 -2,-2h-3c-0.552,0 -1,0.448 -1,1v1c0,1.105 0.895,2 2,2z" fill="url(#color-4)"></path><path d="M40.25,20l-0.092,-0.123l-0.098,-0.392l-2.243,-8.97c-0.223,-0.892 -1.021,-1.515 -1.94,-1.515h-23.754c-0.919,0 -1.717,0.623 -1.94,1.515l-2.242,8.97l-0.098,0.392l-0.093,0.123z" fill="url(#color-5)"></path></g></g></svg>