<svg xmlns="http://www.w3.org/2000/svg" xmlns:xlink="http://www.w3.org/1999/xlink" viewBox="0,0,256,256" width="20px" height="20px" fill-rule="nonzero"><g fill="#999999" fill-rule="nonzero" stroke="none" stroke-width="1" stroke-linecap="butt" stroke-linejoin="miter" stroke-miterlimit="10" stroke-dasharray="" stroke-dashoffset="0" font-family="none" font-weight="none" font-size="none" text-anchor="none" style="mix-blend-mode: normal"><g transform="scale(10.66667,10.66667)"><path d="M4.57031,4c-0.7,0 -1.35977,0.36906 -1.75977,1.03906l-2.71094,5.52148c-0.06,0.14 -0.09961,0.28945 -0.09961,0.43945v6c0,0.93461 0.65142,1.71904 1.52148,1.93555c0.68457,1.22438 1.97856,2.06445 3.47852,2.06445c1.47378,0 2.74944,-0.81066 3.44336,-2h5.11328c0.69392,1.18934 1.96958,2 3.44336,2c1.58159,0 2.93915,-0.93064 3.58789,-2.26562l1.86133,-0.84375c0.34,-0.16 0.55078,-0.51063 0.55078,-0.89062v-4.17969c0,-0.95 -0.67938,-1.78094 -1.60937,-1.96094l-3.71094,-0.74023l-2.5293,-5.14844c-0.36,-0.6 -1.0207,-0.9707 -1.7207,-0.9707zM13.39063,5.92969l2.00586,4.07031h-5.39648v-4.04297zM8,5.97266v4.02734h-5.39844l1.96875,-4zM5,15c1.103,0 2,0.897 2,2c0,1.103 -0.897,2 -2,2c-1.103,0 -2,-0.897 -2,-2c0,-1.103 0.897,-2 2,-2zM17,15c1.103,0 2,0.897 2,2c0,1.103 -0.897,2 -2,2c-1.103,0 -2,-0.897 -2,-2c0,-1.103 0.897,-2 2,-2z"></path></g></g></svg>