<svg xmlns="http://www.w3.org/2000/svg" xmlns:xlink="http://www.w3.org/1999/xlink" viewBox="0,0,256,256" width="30px" height="30px" fill-rule="nonzero"><defs><linearGradient x1="39.112" y1="20.312" x2="39.112" y2="25.801" gradientUnits="userSpaceOnUse" id="color-1"><stop offset="0" stop-color="#dedede"></stop><stop offset="1" stop-color="#d6d6d6"></stop></linearGradient></defs><g fill="none" fill-rule="nonzero" stroke="none" stroke-width="1" stroke-linecap="butt" stroke-linejoin="miter" stroke-miterlimit="10" stroke-dasharray="" stroke-dashoffset="0" font-family="none" font-weight="none" font-size="none" text-anchor="none" style="mix-blend-mode: normal"><g transform="scale(5.33333,5.33333)"><rect x="9" y="5" width="30" height="38" rx="2" ry="0" fill-opacity="0.47059" fill="#f86642"></rect><rect x="13" y="14" width="2" height="2" rx="0.5" ry="0" fill="#f86642"></rect><rect x="17" y="24" width="19" height="2" rx="0.5" ry="0" fill="#f86642"></rect><rect x="17" y="19" width="14" height="2" rx="0.5" ry="0" fill="#f86642"></rect><rect x="17" y="29" width="14" height="2" rx="0.5" ry="0" fill="#f86642"></rect><rect x="13" y="19" width="2" height="2" rx="0.5" ry="0" fill="#f86642"></rect><rect x="13" y="24" width="2" height="2" rx="0.5" ry="0" fill="#f86642"></rect><rect x="13" y="29" width="2" height="2" rx="0.5" ry="0" fill="#f86642"></rect><path d="M39,18.602l-15.899,15.902l-1.233,4.896c-0.05156,0.20572 0.00866,0.42341 0.15863,0.57337c0.14997,0.14997 0.36765,0.21019 0.57337,0.15863l4.897,-1.233l11.503,-11.505z" fill="#000000" opacity="0.05"></path><path d="M39,19.309l-15.059,15.062l-0.547,1.017h-0.001l-0.864,3.434c-0.04599,0.18216 0.00721,0.37509 0.14006,0.50794c0.13285,0.13285 0.32577,0.18605 0.50794,0.14006l3.446,-0.868v0l1.006,-0.543l11.371,-11.396z" fill="#000000" opacity="0.07"></path><path d="M42.781,21.141l-1.922,-1.921c-0.14069,-0.1407 -0.33152,-0.21975 -0.5305,-0.21975c-0.19898,0 -0.38981,0.07905 -0.5305,0.21975l-0.904,0.905l2.981,2.981l0.905,-0.904c0.29278,-0.29291 0.29323,-0.76754 0.001,-1.061" fill="#c94f60"></path><path d="M24.003,35.016l-1.003,3.984l3.985,-1.003l0.418,-3.456z" fill="#f0f0f0"></path><path d="M39.333,25.648l-12.348,12.348l-2.981,-2.981l12.348,-12.348z" fill="#edbe00"></path><path d="M36.349,22.667l2.543,-2.544l2.983,2.981l-2.543,2.544z" fill="url(#color-1)"></path><path d="M23.508,36.985l-0.508,2.015l2.014,-0.508z" fill="#787878"></path><rect x="17" y="14" width="18" height="2" rx="0.5" ry="0" fill="#f86642"></rect></g></g></svg>