<svg xmlns="http://www.w3.org/2000/svg"  viewBox="0 0 100 100" width="200px" height="200px"><circle cx="50" cy="50" r="36.5" fill="#f0ffd2"/><path fill="none" stroke="#231f20" stroke-linecap="round" stroke-linejoin="round" stroke-miterlimit="10" d="M93.71,83.768	c-0.941-10.575-2.24-20.178-3.844-23.572c-3.536-7.484-7.997-3.954-7.997-3.954"/><path fill="none" stroke="#231f20" stroke-linecap="round" stroke-linejoin="round" stroke-miterlimit="10" d="M83.431,63.442	c0,0-1.434-15.12-11.444-10.143"/><path fill="none" stroke="#231f20" stroke-linecap="round" stroke-linejoin="round" stroke-miterlimit="10" d="M59.34,54.702	c0,0-7.213,6.83-7.959,13.681c-0.684,6.278,2.757,12.011,3.994,26.01"/><path fill="none" stroke="#231f20" stroke-linecap="round" stroke-linejoin="round" stroke-miterlimit="10" d="M72.946,59.797	c0,0-1.649-13.309-4.128-18.603s-9-4.394-9.357,2.474s0.787,17.947-0.936,27.223"/><path fill="none" stroke="#231f20" stroke-linecap="round" stroke-linejoin="round" stroke-miterlimit="10" d="M43,41.553H27.809	c-1.34,0-2.426-1.086-2.426-2.426V23.936c0-1.34,1.086-2.426,2.426-2.426H43c1.34,0,2.426,1.086,2.426,2.426v15.191	C45.426,40.467,44.34,41.553,43,41.553z"/><path fill="none" stroke="#231f20" stroke-linecap="round" stroke-linejoin="round" stroke-miterlimit="10" d="M43,69.511H27.809	c-1.34,0-2.426-1.086-2.426-2.426V51.894c0-1.34,1.086-2.426,2.426-2.426H43c1.34,0,2.426,1.086,2.426,2.426v15.191	C45.426,68.425,44.34,69.511,43,69.511z"/><path fill="none" stroke="#231f20" stroke-linecap="round" stroke-linejoin="round" stroke-miterlimit="10" d="M59.723,41.553h-3.574	c-1.34,0-2.426-1.086-2.426-2.426V23.936c0-1.34,1.086-2.426,2.426-2.426H71.34c1.34,0,2.426,1.086,2.426,2.426v15.191	c0,1.34-1.086,2.426-2.426,2.426h-2.17"/><polyline fill="none" stroke="#231f20" stroke-linecap="round" stroke-linejoin="round" stroke-miterlimit="10" points="58.447,29.939 63.489,34.979 70.064,26.681"/></svg>