<svg xmlns="http://www.w3.org/2000/svg"  viewBox="0 0 60 60" width="120px" height="120px"><path fill="#d4e6e7" d="M42,52V3a2,2,0,0,0-2-2H3A2,2,0,0,0,1,3V55.83A3.128,3.128,0,0,0,3.84,59H8Z"/><path fill="#aac7c8" d="M31.328,46.15l-4.521,1.807a.587.587,0,0,1-.763-.762l1.808-4.516a4.141,4.141,0,0,1,.919-1.391L41.037,29.037l3.95,3.945L32.721,45.233A4.134,4.134,0,0,1,31.328,46.15Z"/><path fill="#c74c5e" d="M57.8,21.508l-1.975,1.971,1.151,1.179-7.931,7.809-1.123-1.1L45.285,34a.928.928,0,0,1-1.313,0l-3.948-3.942a.908.908,0,0,1,0-1.311l12.505-12.5a1.868,1.868,0,0,1,2.635,0L57.8,18.877A1.861,1.861,0,0,1,57.8,21.508Z"/><path fill="#a03c4f" d="M59,24.791a1.858,1.858,0,0,1-.549,1.32L50.555,34a1.862,1.862,0,1,1-2.635-2.631l7.905-7.885A1.862,1.862,0,0,1,59,24.791Z"/><path fill="#aac7c8" d="M48,54v2a3,3,0,0,1-3,3H4a3,3,0,0,0,3-3V54a2.006,2.006,0,0,1,2-2H46A2.006,2.006,0,0,1,48,54Z"/><path fill="#56777d" d="M22,49H16a9.81,9.81,0,0,1-5-1.4A9.81,9.81,0,0,1,6,49a1,1,0,0,1,0-2,8.545,8.545,0,0,0,3.4-.8A6.418,6.418,0,0,1,8,42a3,3,0,0,1,6,0,6.418,6.418,0,0,1-1.4,4.2A8.548,8.548,0,0,0,16,47h6a1,1,0,0,1,0,2ZM11,41a1,1,0,0,0-1,1,4.467,4.467,0,0,0,1,2.975A4.467,4.467,0,0,0,12,42,1,1,0,0,0,11,41Z"/><path fill="#86a9af" d="M37,16H16a1,1,0,0,1,0-2H37a1,1,0,0,1,0,2Z"/><path fill="#86a9af" d="M12,16H6a1,1,0,0,1,0-2h6a1,1,0,0,1,0,2Z"/><path fill="#86a9af" d="M37,10H6A1,1,0,0,1,6,8H37a1,1,0,0,1,0,2Z"/><path fill="#86a9af" d="M30,35H6a1,1,0,0,1,0-2H30a1,1,0,0,1,0,2Z"/><path fill="#86a9af" d="M37,22H6a1,1,0,0,1,0-2H37a1,1,0,0,1,0,2Z"/><path fill="#86a9af" d="M34,28H6a1,1,0,0,1,0-2H34a1,1,0,0,1,0,2Z"/></svg>