<svg xmlns="http://www.w3.org/2000/svg" xmlns:xlink="http://www.w3.org/1999/xlink" viewBox="0,0,256,256" width="128px" height="128px" fill-rule="nonzero"><g fill="none" fill-rule="nonzero" stroke="none" stroke-width="1" stroke-linecap="butt" stroke-linejoin="miter" stroke-miterlimit="10" stroke-dasharray="" stroke-dashoffset="0" font-family="none" font-weight="none" font-size="none" text-anchor="none" style="mix-blend-mode: normal"><g transform="scale(8,8)"><rect x="1" y="5" width="24" height="16" rx="1" ry="1" fill="#faf7f5"></rect><path d="M3,8c0,-0.55228 0.44772,-1 1,-1h21v-1c0,-0.55228 -0.44772,-1 -1,-1h-22c-0.55228,0 -1,0.44772 -1,1v14c0,0.55228 0.44772,1 1,1h1z" fill="#f0e6e2"></path><path d="M18.74,16.9c-0.28218,-0.00067 -0.55094,-0.12052 -0.74,-0.33l-2.63,-2.9c-0.37003,-0.41145 -0.33645,-1.04497 0.075,-1.415c0.41145,-0.37003 1.04497,-0.33645 1.415,0.075l2.62,2.9c0.18037,0.19695 0.27446,0.45787 0.26131,0.72461c-0.01315,0.26674 -0.13245,0.51713 -0.33131,0.69539c-0.18488,0.16307 -0.42349,0.2521 -0.67,0.25z" fill="#ff4343"></path><path d="M7.27,16.9c-0.39474,-0.00093 -0.75199,-0.23398 -0.9119,-0.59487c-0.15992,-0.36089 -0.09257,-0.78209 0.1719,-1.07513l2.62,-2.9c0.23255,-0.28959 0.60644,-0.42643 0.97098,-0.35539c0.36454,0.07104 0.65969,0.33827 0.76649,0.69398c0.1068,0.35572 0.00766,0.74132 -0.25747,1.00141l-2.63,2.9c-0.18671,0.20692 -0.45131,0.32654 -0.73,0.33z" fill="#ff4343"></path><circle cx="24" cy="20" r="7" fill="#f86642"></circle><path d="M27.84,14.16c0.75732,1.1374 1.16095,2.47354 1.16,3.84c0,3.86599 -3.13401,7 -7,7c-1.36646,0.00095 -2.7026,-0.40268 -3.84,-1.16c1.55187,2.3977 4.40479,3.61214 7.20868,3.0686c2.8039,-0.54354 4.99639,-2.73602 5.53992,-5.53992c0.54354,-2.8039 -0.6709,-5.65682 -3.0686,-7.20868z" fill="#fa5252"></path><path d="M25,6c0,-0.55228 -0.44772,-1 -1,-1h-22c-0.55228,0 -1,0.44772 -1,1v0.44l7.85,7c2.36889,2.10816 5.94111,2.10816 8.31,0l7.84,-7z" fill="#f86642"></path><path d="M3,8c0,-0.55228 0.44772,-1 1,-1h20.38l0.62,-0.55v-0.45c0,-0.55228 -0.44772,-1 -1,-1h-22c-0.55228,0 -1,0.44772 -1,1v0.44l2,1.79z" fill="#fa5252"></path><path d="M23.38,22.5c-0.25747,-0.00103 -0.50462,-0.10132 -0.69,-0.28l-1.88,-1.81c-0.18931,-0.18777 -0.2958,-0.44336 -0.2958,-0.71c0,-0.26664 0.10649,-0.52223 0.2958,-0.71c0.39004,-0.38772 1.01996,-0.38772 1.41,0l1.19,1.14l2.43,-2.33c0.40379,-0.33319 0.99622,-0.29856 1.35844,0.07941c0.36222,0.37797 0.37162,0.97134 0.02156,1.36059l-3.11,3c-0.1985,0.18126 -0.46161,0.27497 -0.73,0.26z" fill="#f0e6e2"></path></g></g></svg>