<svg xmlns="http://www.w3.org/2000/svg" xmlns:xlink="http://www.w3.org/1999/xlink" viewBox="0,0,256,256" width="48px" height="48px" fill-rule="evenodd"><g fill="#ff4343" fill-rule="evenodd" stroke="none" stroke-width="1" stroke-linecap="butt" stroke-linejoin="miter" stroke-miterlimit="10" stroke-dasharray="" stroke-dashoffset="0" font-family="none" font-weight="none" font-size="none" text-anchor="none" style="mix-blend-mode: normal"><g transform="scale(10.66667,10.66667)"><path d="M12,1.25c5.933,0 10.75,4.817 10.75,10.75c0,5.933 -4.817,10.75 -10.75,10.75c-5.933,0 -10.75,-4.817 -10.75,-10.75c0,-5.933 4.817,-10.75 10.75,-10.75zM10.939,12l-2.969,2.97c-0.293,0.292 -0.293,0.768 0,1.06c0.292,0.293 0.768,0.293 1.06,0l2.97,-2.969l2.97,2.969c0.292,0.293 0.768,0.293 1.06,0c0.293,-0.292 0.293,-0.768 0,-1.06l-2.969,-2.97l2.969,-2.97c0.293,-0.292 0.293,-0.768 0,-1.06c-0.292,-0.293 -0.768,-0.293 -1.06,0l-2.97,2.969l-2.97,-2.969c-0.292,-0.293 -0.768,-0.293 -1.06,0c-0.293,0.292 -0.293,0.768 0,1.06z"></path></g></g></svg>