<svg xmlns="http://www.w3.org/2000/svg" xmlns:xlink="http://www.w3.org/1999/xlink" viewBox="0,0,256,256" width="30px" height="30px" fill-rule="nonzero"><g fill="none" fill-rule="nonzero" stroke="none" stroke-width="1" stroke-linecap="butt" stroke-linejoin="miter" stroke-miterlimit="10" stroke-dasharray="" stroke-dashoffset="0" font-family="none" font-weight="none" font-size="none" text-anchor="none" style="mix-blend-mode: normal"><g transform="scale(5.33333,5.33333)"><path d="M40,21h4v22h-4zM34,27h4v16h-4zM28,30h4v13h-4zM22,32h4v11h-4zM16,36h4v7h-4zM10,39h4v4h-4zM4,41h4v2h-4z" fill="#ffa993"></path><path d="M44,9h-9l9,9z" fill="#f86642"></path><path d="M11,5c-3.86,0 -7,3.14 -7,7c0,3.86 3.14,7 7,7c3.86,0 7,-3.14 7,-7c0,-3.86 -3.14,-7 -7,-7z" fill="#ffc107"></path><path d="M11.994,15.974h-1.553v-6.081l-1.853,0.581v-1.268l3.24,-1.18h0.166z" fill="#ffffff"></path><path d="M6.914,36.914l-2.828,-2.828l9.914,-9.914l3,3l10.5,-10.5l3,3l9.086,-9.086l2.828,2.828l-11.914,11.914l-3,-3l-10.5,10.5l-3,-3z" fill="#f86642"></path></g></g></svg>