<svg xmlns="http://www.w3.org/2000/svg" xmlns:xlink="http://www.w3.org/1999/xlink" viewBox="0,0,256,256" width="18px" height="18px" fill-rule="nonzero"><g fill="#ffffff" fill-rule="nonzero" stroke="none" stroke-width="1" stroke-linecap="butt" stroke-linejoin="miter" stroke-miterlimit="10" stroke-dasharray="" stroke-dashoffset="0" font-family="none" font-weight="none" font-size="none" text-anchor="none" style="mix-blend-mode: normal"><g transform="scale(8.53333,8.53333)"><path d="M12,2c-0.48507,0.00019 -0.90006,0.34848 -0.98437,0.82617l-2.98047,12.90625l0.00195,0.00195c-0.02424,0.08647 -0.03672,0.17582 -0.03711,0.26563c0,0.55228 0.44772,1 1,1h5.5l-1.48047,9.80078c-0.01316,0.06559 -0.0197,0.13233 -0.01953,0.19922c0,0.55228 0.44772,1 1,1c0.3703,-0.00058 0.70996,-0.20573 0.88281,-0.5332h0.00195l6.92187,-12.87695l-0.00977,-0.01758c0.11836,-0.16429 0.20313,-0.35446 0.20313,-0.57227c0,-0.552 -0.448,-1 -1,-1h-5.5l3.41211,-9.58984c0.05796,-0.12897 0.08792,-0.26876 0.08789,-0.41016c0,-0.55228 -0.44772,-1 -1,-1z"></path></g></g></svg>