<svg xmlns="http://www.w3.org/2000/svg"  viewBox="0 0 48 48" width="144px" height="144px"><path fill="#DD872A" d="M18 17L25 17 25 21 32 21 26 10 17 7 12 13z"/><path fill="#E89531" d="M33.4,36c-0.2-0.1-0.5-0.1-0.7,0l0,0l-0.1,0c0,0,0,0,0,0l-8.2,3.2l1.8-3.9l-7.7-3.6c-1.2-0.6-2.6-0.1-3.2,1.1l-1.3-0.6c-1.3-0.6-2.7,0-3.3,1.2c-0.6,1.3,0,2.8,1.2,3.3l6.3,2.9c1.5,2.7,4.4,2.4,5.8,1.8l9.3-3.6l0,0c0.3-0.1,0.5-0.3,0.6-0.6C34.1,36.8,33.9,36.2,33.4,36z"/><path fill="#7986CB" d="M31.9,15.6L31.9,15.6C31.9,15.6,31.9,15.6,31.9,15.6L31.9,15.6C30.6,15.2,29.3,15,28,15c-1.3,0-2.6,0.2-3.9,0.6l0,0c-0.7,0.2-1.1,0.8-1.1,1.5v0v3.7c0,0.3,0.1,0.7,0.3,0.9c0.2,0.3,0.5,0.5,0.8,0.6l1.7,0.6c0,0,0,0,0,0l0,0c0.1,0,0.2,0,0.2,0v5.5l1,1.5h2l1-1.5V28l-1-1l1-1l-1-1l1-1v-1c0.1,0,0.2,0,0.2,0l0,0c0,0,0,0,0,0l1.7-0.6c0.3-0.1,0.6-0.3,0.8-0.6s0.3-0.6,0.3-0.9v0v-3.7v0C33,16.5,32.6,15.9,31.9,15.6z M31,17.4V18c0,0.5-0.5,1-1,1h-4c-0.5,0-1-0.5-1-1v-0.6c1-0.3,2-0.4,3-0.4C29,17,30,17.1,31,17.4z"/><path fill="#3949AB" d="M27 23H28V30H27z"/><path fill="#FFB74D" d="M6.2,34.6c0.5-1.3,2-1.9,3.3-1.3l8,3.5c-0.1,0.8,0.1,1.6,0.3,2.3c1.3,3.4,4.6,3.1,6.1,2.5l9.3-3.6l0,0c0.3-0.1,0.5-0.3,0.6-0.6c0.2-0.5,0-1.1-0.5-1.3c-0.2-0.1-0.5-0.1-0.7,0l0,0l-0.1,0c0,0,0,0,0,0l-9.3,3.6c-0.3,0.1-2.7,1-3.6-1.3c-0.1-0.2-0.1-0.4-0.2-0.6l0,0c-0.2-1.4,1-2.2,1.7-2.5l11.9-4.7C37,28.8,46,32.8,46,32.8l-3.4,8.4l-3.7-1.6l-13.1,5.3c-0.7,0.3-1.5,0.3-2.2,0.1c0,0,0,0,0,0c0,0,0,0,0,0c-0.1,0-0.3-0.1-0.4-0.1L7.5,37.9C6.2,37.4,5.7,35.9,6.2,34.6z M32.6,15.5l-4.2-7.7c-0.2-0.5-0.7-0.9-1.2-1.1L19,3.1c-0.5-0.2-1.1-0.2-1.6,0L7,7H3H2v9h2.7c2.7,1.5,5.5,2.9,6.9,3.6c0.5,0.2,1.1,0.4,1.7,0.4h9.1h1.9h0.1c1.4,0,2.5-1.1,2.5-2.5S25.9,15,24.5,15h-6.1l-3.8-2.7l3.5-3.8L25,11l2.2,4c0.3,0,0.5,0,0.8,0c1.3,0,2.6,0.2,3.9,0.6l0,0c0.6,0.2,1,0.7,1.1,1.3c0-0.1,0-0.1,0-0.2C33,16.3,32.8,15.8,32.6,15.5z M28.7,17.8c0.4,0.7,1.1,1.2,2,1.2c0.1,0,0.2,0,0.3,0v-1.5c-0.9-0.3-1.8-0.4-2.7-0.4L28.7,17.8z"/></svg>