<svg xmlns="http://www.w3.org/2000/svg" xmlns:xlink="http://www.w3.org/1999/xlink" viewBox="0,0,256,256" width="24px" height="24px" fill-rule="nonzero"><g fill="#f86642" fill-rule="nonzero" stroke="none" stroke-width="1" stroke-linecap="butt" stroke-linejoin="miter" stroke-miterlimit="10" stroke-dasharray="" stroke-dashoffset="0" font-family="none" font-weight="none" font-size="none" text-anchor="none" style="mix-blend-mode: normal"><g transform="scale(10.66667,10.66667)"><path d="M10,2c-0.552,0 -1,0.448 -1,1v1h-7v2h7v1c0,0.552 0.448,1 1,1h1c0.552,0 1,-0.448 1,-1v-4c0,-0.552 -0.448,-1 -1,-1zM14,4v2h8v-2zM15,9c-0.552,0 -1,0.448 -1,1v1h-12v2h12v1c0,0.552 0.448,1 1,1h1c0.552,0 1,-0.448 1,-1v-4c0,-0.552 -0.448,-1 -1,-1zM19,11v2h3v-2zM5,16c-0.552,0 -1,0.448 -1,1v1h-2v2h2v1c0,0.552 0.448,1 1,1h1c0.552,0 1,-0.448 1,-1v-4c0,-0.552 -0.448,-1 -1,-1zM9,18v2h13v-2z"></path></g></g></svg>