<svg xmlns="http://www.w3.org/2000/svg" xmlns:xlink="http://www.w3.org/1999/xlink" viewBox="0,0,256,256" width="35px" height="35px" fill-rule="nonzero"><g fill="#f86642" fill-rule="nonzero" stroke="none" stroke-width="1" stroke-linecap="butt" stroke-linejoin="miter" stroke-miterlimit="10" stroke-dasharray="" stroke-dashoffset="0" font-family="none" font-weight="none" font-size="none" text-anchor="none" style="mix-blend-mode: normal"><g transform="scale(5.33333,5.33333)"><path d="M21.5,3c-0.54095,-0.00765 -1.04412,0.27656 -1.31683,0.74381c-0.27271,0.46725 -0.27271,1.04514 0,1.51238c0.27271,0.46725 0.77588,0.75146 1.31683,0.74381h1v2.07617c-9.22301,0.76655 -16.5,8.50665 -16.5,17.92383c0,9.92336 8.07664,18 18,18c9.92336,0 18,-8.07664 18,-18c0,-4.42278 -1.6104,-8.47183 -4.26758,-11.60937l1.82422,-1.82617c0.4429,-0.43135 0.57582,-1.09023 0.33479,-1.65955c-0.24103,-0.56932 -0.80665,-0.93247 -1.42463,-0.91467c-0.38956,0.01135 -0.75941,0.17386 -1.03125,0.45312l-1.82617,1.82422c-2.77846,-2.35307 -6.27353,-3.8726 -10.10937,-4.19141v-2.07617h1c0.54095,0.00765 1.04412,-0.27656 1.31683,-0.74381c0.27271,-0.46725 0.27271,-1.04514 0,-1.51238c-0.27271,-0.46725 -0.77588,-0.75146 -1.31683,-0.74381zM23.82227,11.00977c0.12065,0.01472 0.24263,0.01472 0.36328,0c4.03453,0.04912 7.6775,1.67538 10.3418,4.29883c0.04873,0.0566 0.10161,0.10948 0.1582,0.1582c2.66748,2.70604 4.31445,6.42111 4.31445,10.5332c0,8.30204 -6.69795,15 -15,15c-8.30204,0 -15,-6.69796 -15,-15c0,-8.24203 6.60352,-14.89437 14.82227,-14.99023zM30.4707,17.98633c-0.38956,0.01135 -0.75941,0.17386 -1.03125,0.45313l-4.66602,4.66602c-0.25212,-0.06869 -0.51213,-0.10415 -0.77344,-0.10547c-1.65685,0 -3,1.34315 -3,3c0,1.65685 1.34315,3 3,3c0.9322,-0.00049 1.8112,-0.4343 2.37863,-1.1739c0.56743,-0.73961 0.7588,-1.70096 0.51786,-2.60149l4.66406,-4.66406c0.4429,-0.43135 0.57582,-1.09023 0.33479,-1.65955c-0.24103,-0.56932 -0.80665,-0.93247 -1.42463,-0.91467z"></path></g></g></svg>