<svg xmlns="http://www.w3.org/2000/svg" xmlns:xlink="http://www.w3.org/1999/xlink" viewBox="0,0,256,256" width="22px" height="22px" fill-rule="nonzero"><g fill="#999999" fill-rule="nonzero" stroke="none" stroke-width="1" stroke-linecap="butt" stroke-linejoin="miter" stroke-miterlimit="10" stroke-dasharray="" stroke-dashoffset="0" font-family="none" font-weight="none" font-size="none" text-anchor="none" style="mix-blend-mode: normal"><g transform="scale(10.66667,10.66667)"><path d="M20.023,15.488c-0.63,-0.015 -1.423,-0.052 -1.924,-0.14c-0.542,-0.096 -1.194,-0.282 -1.653,-0.425c-0.36,-0.112 -0.752,-0.013 -1.019,0.253l-2.217,2.204c-1.532,-0.807 -2.759,-1.747 -3.798,-2.792c-1.045,-1.039 -1.985,-2.266 -2.792,-3.798l2.204,-2.218c0.266,-0.267 0.365,-0.659 0.253,-1.019c-0.142,-0.458 -0.329,-1.11 -0.424,-1.652c-0.089,-0.501 -0.125,-1.294 -0.141,-1.924c-0.013,-0.545 -0.457,-0.977 -1.002,-0.977h-3.51c-0.438,0 -1,0.328 -1,1c0,4.539 1.84,8.874 4.966,12.034c3.16,3.126 7.495,4.966 12.034,4.966c0.672,0 1,-0.562 1,-1v-3.51c0,-0.545 -0.432,-0.989 -0.977,-1.002z"></path></g></g></svg>